<?xml version="1.0"?><svg version="1.1" id="圖層_1" xmlns="http://www.w3.org/2000/svg" x="0" y="0" viewBox="0 0 100 100" xml:space="preserve"><ellipse cx="43.462" cy="50.53" rx="26.167" ry="12.115" fill="none" stroke="#333" stroke-width="3.5" stroke-miterlimit="10"/><path d="M69.629 50.53c0 27.552-11.715 37.885-26.167 37.885s-26.167-9-26.167-37.885" fill="none" stroke="#333" stroke-width="3.5" stroke-miterlimit="10"/><path d="M69.052 60.439c.294-2.599.727-5.19 2.516-6.959 1.789-1.769 4.622-2.494 6.958-1.562 2.536 1.012 4.102 3.783 4.176 6.512s-1.147 5.37-2.867 7.49c-.779.96-1.675 1.844-2.743 2.468-2.037 1.19-4.497 1.337-6.753 2.024-2.256.687-4.435 2.214-5.404 4.67" fill="none" stroke="#333" stroke-width="3.5" stroke-miterlimit="10"/><g><path d="M30.306 19.586c-.938 1.474-1.137 3.02-.859 4.438.131.711.362 1.394.657 2.039.297.642.662 1.232 1.094 1.854.859 1.222 1.893 2.416 2.946 3.739a32.05 32.05 0 0 1 1.555 2.117c.256.375.478.785.707 1.19.235.401.451.813.639 1.239 1.579 3.37 2.07 7.24 1.368 10.823-.685 3.577-2.511 6.886-5.199 9.065 1.136-3.257 1.722-6.365 1.677-9.405a20.866 20.866 0 0 0-1.929-8.594c-1.109-2.616-3.348-5.09-4.862-8.492-.743-1.682-1.173-3.724-.849-5.612.303-1.895 1.437-3.705 3.055-4.401z" fill="#333"/></g><g><path d="M38.708 13.333c-.938 1.474-1.137 3.02-.859 4.438.131.711.362 1.394.657 2.039.297.642.662 1.232 1.094 1.854.859 1.222 1.893 2.416 2.946 3.739a32.05 32.05 0 0 1 1.555 2.117c.256.375.478.785.707 1.19.235.401.451.813.639 1.239 1.579 3.37 2.07 7.24 1.368 10.823-.685 3.577-2.511 6.886-5.199 9.065 1.136-3.257 1.723-6.365 1.677-9.405a20.866 20.866 0 0 0-1.929-8.594c-1.109-2.616-3.348-5.09-4.862-8.492-.743-1.682-1.173-3.724-.849-5.612.302-1.896 1.437-3.706 3.055-4.401z" fill="#333"/></g><g><path d="M47.11 7.585c-.938 1.474-1.137 3.02-.859 4.438.131.711.362 1.394.657 2.039.297.642.662 1.232 1.094 1.854.859 1.222 1.893 2.416 2.946 3.739a32.05 32.05 0 0 1 1.555 2.117c.256.375.478.785.707 1.19.235.401.451.813.639 1.239 1.579 3.37 2.07 7.24 1.368 10.823-.685 3.577-2.511 6.886-5.199 9.065 1.136-3.257 1.722-6.365 1.677-9.405a20.866 20.866 0 0 0-1.929-8.594c-1.109-2.616-3.348-5.09-4.862-8.492-.743-1.682-1.173-3.724-.849-5.612.302-1.896 1.436-3.706 3.055-4.401z" fill="#333"/></g><metadata xmlns:d="https://loading.io/stock/">
<d:name>coffee</d:name>
<d:tags>coffee,cafe,tea,cup,drink,cafeteria,latte,cappuccino,espresso,macchiato,hot</d:tags>
<d:license>by</d:license>
<d:slug>2u08q4</d:slug>
</metadata></svg>