<?xml version="1.0"?><svg version="1.1" id="圖層_1" xmlns="http://www.w3.org/2000/svg" x="0" y="0" viewBox="0 0 100 100" xml:space="preserve"><path d="M80.813 77.356c3.492-6.013 5.396-14.742 5.396-27.356s-1.904-21.344-5.396-27.356a20.13 20.13 0 0 0 1.256-1.573c3.636-5.075 4.302-10.824 1.488-12.84s-8.043.464-11.679 5.539c-.033.047-.062.094-.095.141C65.965 10.855 58.589 10 50 10s-15.965.855-21.783 3.911c-.033-.047-.062-.094-.095-.141-3.636-5.075-8.865-7.555-11.679-5.539s-2.148 7.765 1.488 12.84c.4.559.822 1.08 1.256 1.573-3.492 6.012-5.396 14.742-5.396 27.356s1.904 21.344 5.396 27.356a20.13 20.13 0 0 0-1.256 1.573c-3.636 5.075-4.302 10.824-1.488 12.84s8.043-.464 11.679-5.539c.033-.047.062-.094.095-.141C34.035 89.145 41.411 90 50 90s15.965-.855 21.783-3.911c.033.047.062.094.095.141 3.636 5.075 8.865 7.555 11.679 5.539s2.148-7.765-1.488-12.84a20.13 20.13 0 0 0-1.256-1.573z" stroke-width="3.5" stroke-miterlimit="10" fill="#f5e6c8" stroke="#333"/><path d="M70 50c0 18.918-6.981 26.212-20 26.212S30 68.918 30 50s6.981-26.212 20-26.212S70 31.082 70 50z" fill="#fff"/><path d="M42.506 53.876c3.122 6.037 8.524 7.247 12.246 5.322a5.69 5.69 0 0 0 .258-.142c-.008-.035-.014-.072-.023-.107-.019-.078-.04-.153-.061-.229a9.2 9.2 0 0 0-.205-.663 8.553 8.553 0 0 0-.162-.416c-.026-.063-.051-.128-.079-.189a7.382 7.382 0 0 0-.281-.563c-.807-1.441-2.084-2.549-3.436-3.722-1.029-.893-2.093-1.816-2.971-2.923a12.164 12.164 0 0 1-.598-.828l-.07-.103a12.37 12.37 0 0 1-.579-.991 13.05 13.05 0 0 1-.425-.891l-.066-.157a14.122 14.122 0 0 1-.365-.971l-.037-.117a15.943 15.943 0 0 1-.31-1.077l-.006-.021a18.273 18.273 0 0 1-.242-1.152l-.028-.152c-.065-.38-.12-.773-.167-1.175l-.024-.208a26.052 26.052 0 0 1-.103-1.241l-.007-.086c-3.422 2.104-5.245 7.028-2.259 12.802z" fill="#66503a"/><path d="M57.487 46.129c-2.867-5.543-7.474-6.905-10.992-5.831a27.04 27.04 0 0 0 .074 1.304l.014.17a21.764 21.764 0 0 0 .158 1.324c.055.366.12.721.194 1.064l.036.165a15.304 15.304 0 0 0 .302 1.137c.098.318.205.626.322.923l.052.126c.122.299.252.589.394.869l.05.094a10.426 10.426 0 0 0 1.081 1.676c.777.978 1.733 1.808 2.746 2.687 1.407 1.221 2.861 2.483 3.819 4.192.151.269.285.549.409.836.04.093.075.191.112.286.079.201.155.404.223.615.016.049.036.093.051.142 2.465-2.394 3.592-6.68.955-11.779z" fill="#66503a"/><path d="M80.409 77.356C83.9 71.344 85.804 62.614 85.804 50c0-8.372-.844-15.025-2.429-20.316-6.059 36.972-28.548 50.183-55.381 50.183-3.62 0-7.156-.253-10.589-.759-3.525 5.031-4.149 10.669-1.367 12.661 2.814 2.016 8.043-.464 11.679-5.539.033-.047.062-.094.095-.141C33.63 89.145 41.007 90 49.595 90s15.965-.855 21.783-3.911c.033.047.062.094.095.141 3.636 5.075 8.865 7.555 11.679 5.539s2.148-7.765-1.488-12.84c-.4-.558-.822-1.08-1.255-1.573z" opacity=".1" stroke="#000" stroke-width="3.5" stroke-miterlimit="10"/><metadata xmlns:d="https://loading.io/stock/">
<d:name>coffee bean</d:name>
<d:tags>coffee bean,roasted,cafe,caffeine,seed,nut</d:tags>
<d:license>by</d:license>
<d:slug>4tugim</d:slug>
</metadata></svg>