<?xml version="1.0"?><svg version="1.1" id="圖層_1" xmlns="http://www.w3.org/2000/svg" x="0" y="0" viewBox="0 0 100 100" xml:space="preserve"><path d="M32.369 25.733l-5.877-8.089a40.072 40.072 0 0 0-14.536 19.994l9.511 3.09a30.054 30.054 0 0 1 10.902-14.995z" fill="#c33737" stroke="#333" stroke-width="3.5" stroke-linejoin="round" stroke-linecap="round" stroke-miterlimit="10"/><path d="M50 20h0V10h0a39.811 39.811 0 0 0-23.508 7.644l5.877 8.089A29.86 29.86 0 0 1 50 20z" stroke-width="3.5" stroke-linejoin="round" stroke-miterlimit="10" fill="#f5e169" stroke="#333" stroke-linecap="round"/><path d="M78.455 40.651l9.511-3.09A40.072 40.072 0 0 0 73.43 17.567l-5.877 8.089a30.045 30.045 0 0 1 10.902 14.995z" stroke-width="3.5" stroke-linejoin="round" stroke-miterlimit="10" fill="#f5e169" stroke="#333" stroke-linecap="round"/><path d="M67.631 25.733l5.877-8.089A39.811 39.811 0 0 0 50 10v10a29.86 29.86 0 0 1 17.631 5.733z" fill="#c33737" stroke="#333" stroke-width="3.5" stroke-linejoin="round" stroke-linecap="round" stroke-miterlimit="10"/><path d="M80 50c0 3.237-.519 6.35-1.467 9.271l9.511 3.09C89.308 58.467 90 54.315 90 50s-.692-8.467-1.956-12.361l-9.511 3.09A29.973 29.973 0 0 1 80 50z" fill="#c33737" stroke="#333" stroke-width="3.5" stroke-linejoin="round" stroke-linecap="round" stroke-miterlimit="10"/><path d="M20 50c0-3.237.519-6.351 1.467-9.271l-9.511-3.09A39.963 39.963 0 0 0 10 50c0 4.315.692 8.467 1.956 12.361l9.511-3.09A29.973 29.973 0 0 1 20 50z" stroke-width="3.5" stroke-linejoin="round" stroke-miterlimit="10" fill="#f5e169" stroke="#333" stroke-linecap="round"/><path d="M21.467 59.271l-9.511 3.09a40.072 40.072 0 0 0 14.536 19.994l5.877-8.089a30.045 30.045 0 0 1-10.902-14.995z" fill="#c33737" stroke="#333" stroke-width="3.5" stroke-linejoin="round" stroke-linecap="round" stroke-miterlimit="10"/><path d="M87.966 62.283l-9.511-3.09a30.052 30.052 0 0 1-10.902 14.996l5.877 8.089c6.751-4.914 11.902-11.884 14.536-19.995z" stroke-width="3.5" stroke-linejoin="round" stroke-miterlimit="10" fill="#f5e169" stroke="#333" stroke-linecap="round"/><path d="M50 80v10a39.811 39.811 0 0 0 23.508-7.644l-5.877-8.089A29.86 29.86 0 0 1 50 80z" fill="#c33737" stroke="#333" stroke-width="3.5" stroke-linejoin="round" stroke-linecap="round" stroke-miterlimit="10"/><path d="M50 80a29.86 29.86 0 0 1-17.631-5.733l-5.877 8.089A39.811 39.811 0 0 0 50 90h0V80h0z" stroke-width="3.5" stroke-linejoin="round" stroke-miterlimit="10" fill="#f5e169" stroke="#333" stroke-linecap="round"/><path d="M78.533 40.729a30.052 30.052 0 0 0-10.902-14.996A29.86 29.86 0 0 0 50 20h0a29.86 29.86 0 0 0-17.631 5.733 30.052 30.052 0 0 0-10.902 14.996A29.968 29.968 0 0 0 20 50c0 3.237.519 6.35 1.467 9.271a30.052 30.052 0 0 0 10.902 14.996A29.86 29.86 0 0 0 50 80h0a29.86 29.86 0 0 0 17.631-5.733 30.052 30.052 0 0 0 10.902-14.996C79.481 56.35 80 53.237 80 50s-.519-6.35-1.467-9.271z" stroke-width="3.5" stroke-linecap="round" stroke-linejoin="round" stroke-miterlimit="10" fill="#e0e0e0" stroke="#333"/><g><path d="M35.479 52.553c0 1.889-.976 3.249-2.961 3.249-2.369 0-2.945-1.761-2.945-3.249v-4.931c0-1.904.96-3.249 2.945-3.249 2.385 0 2.961 1.745 2.961 3.249v.48h-1.681v-.48c0-.464-.016-1.601-1.28-1.601s-1.281 1.137-1.281 1.601v4.931c0 .464.016 1.601 1.281 1.601s1.28-1.137 1.28-1.601v-.496h1.681v.496z" fill="#abbd81"/><path d="M40.982 55.594l-.32-2.161h-2.209l-.32 2.161h-1.681l1.729-11.013h2.753l1.729 11.013h-1.681zm-2.273-3.73h1.697l-.848-5.666-.849 5.666z" fill="#abbd81"/><path d="M45.253 52.553c0 .528.096 1.616 1.329 1.616 1.201 0 1.329-1.136 1.329-1.521 0-.448-.176-1.313-1.376-1.824-1.905-.849-2.897-1.329-2.897-3.361 0-1.921.944-3.09 2.945-3.09 2.385 0 2.961 1.745 2.961 3.249v.385H47.91v-.385c0-.479-.128-1.632-1.329-1.632-1.409 0-1.329 1.248-1.329 1.584 0 .528.288 1.121 1.489 1.585 1.409.561 2.801 1.248 2.801 3.489 0 1.889-.977 3.153-2.961 3.153-2.369 0-2.945-1.761-2.945-3.249v-.992h1.617v.993z" fill="#abbd81"/><path d="M56.599 53.978v1.616h-5.906v-1.616h2.081v-7.779h-2.017v-1.617h5.811v1.617H54.55v7.779h2.049z" fill="#abbd81"/><path d="M61.958 55.594l-2.561-6.339v6.339h-1.681V44.581h1.681l2.561 6.451v-6.451h1.665v11.013h-1.665z" fill="#abbd81"/><path d="M70.663 47.622v4.931c0 1.889-.977 3.249-2.961 3.249-2.001 0-2.945-1.36-2.945-3.249v-4.931c0-1.904.96-3.249 2.945-3.249s2.961 1.393 2.961 3.249zm-1.681 0c0-.464-.016-1.601-1.281-1.601-1.249 0-1.28 1.137-1.28 1.601v4.931c0 .464.032 1.601 1.28 1.601 1.265 0 1.281-1.137 1.281-1.601v-4.931z" fill="#abbd81"/></g><path fill="#abbd81" d="M50 59.596l1.545 3.131 3.455.502-2.5 2.437.59 3.441L50 67.482l-3.09 1.625.59-3.441-2.5-2.437 3.455-.502z"/><path fill="#abbd81" d="M60 60.023l1.081 2.191 2.419.352-1.75 1.705.413 2.409L60 65.543l-2.163 1.137.413-2.409-1.75-1.705 2.418-.352z"/><path fill="#abbd81" d="M40 60.023l1.081 2.191 2.419.352-1.75 1.705.413 2.409L40 65.543l-2.163 1.137.413-2.409-1.75-1.705 2.418-.352z"/><path fill="#abbd81" d="M50 30.596l1.545 3.131 3.455.502-2.5 2.437.59 3.441L50 38.482l-3.09 1.625.59-3.441-2.5-2.437 3.455-.502z"/><path fill="#abbd81" d="M60 33.523l1.081 2.191 2.419.352-1.75 1.705.413 2.409L60 39.043l-2.163 1.137.413-2.409-1.75-1.705 2.418-.352z"/><path fill="#abbd81" d="M40 33.523l1.081 2.191 2.419.352-1.75 1.705.413 2.409L40 39.043l-2.163 1.137.413-2.409-1.75-1.705 2.418-.352z"/><metadata xmlns:d="https://loading.io/stock/">
<d:name>chip</d:name>
<d:tags>chip,stake,bet,wager,ante,gamble,coin,token,money,casino</d:tags>
<d:license>by</d:license>
<d:slug>5b8csb</d:slug>
</metadata></svg>