<?xml version="1.0"?><svg version="1.1" id="圖層_1" xmlns="http://www.w3.org/2000/svg" x="0" y="0" viewBox="0 0 100 100" xml:space="preserve"><path d="M79.386 66.741C67.141 88.234 45.125 95.136 29.392 86.173S8.37 54.752 20.614 33.259 54.875 4.864 70.608 13.827s21.022 31.421 8.778 52.914z" stroke-linecap="round" fill="#66503a" stroke-width="3.5" stroke="#333" stroke-miterlimit="10"/><path d="M69.936 13.469a28.91 28.91 0 0 0-4.574-1.964c-6.372 5.963-10.247 14.233-10.461 22.553-.018.68-.014 1.369-.01 2.061.012 1.999.023 3.886-.602 5.04-.631 1.163-2.229 2.197-3.919 3.292l-.151.098a163.974 163.974 0 0 0-12.171 8.703c-2.671 2.102-5.647 4.659-7.146 8.423-1.549 3.892-1.051 7.746-.611 11.146.167 1.29.325 2.507.361 3.635.094 2.956-.664 6.022-2.252 9.113.118.074.238.146.358.218l3.632 1.871a29.103 29.103 0 0 0 4.299 1.434c2.092-4.276 3.096-8.62 2.958-12.924-.05-1.563-.243-3.057-.43-4.501-.343-2.651-.639-4.939.047-6.664.673-1.689 2.517-3.237 4.349-4.678a154.6 154.6 0 0 1 11.5-8.223l.149-.097c2.322-1.504 5.213-3.375 6.938-6.555 1.729-3.187 1.708-6.624 1.692-9.386-.004-.596-.008-1.189.007-1.775.166-6.461 3.485-12.94 8.878-17.33l-2.841-3.49z" fill="#4a3827" stroke-width="3.56" stroke="#333" stroke-miterlimit="10"/><metadata xmlns:d="https://loading.io/stock/">
<d:name>coffee bean</d:name>
<d:tags>coffee bean,roasted,cafe,caffeine,seed,nut</d:tags>
<d:license>by</d:license>
<d:slug>5tko9j</d:slug>
</metadata></svg>