<?xml version="1.0"?><svg version="1.1" id="圖層_1" xmlns="http://www.w3.org/2000/svg" x="0" y="0" viewBox="0 0 100 100" xml:space="preserve"><path d="M80.813 77.356c3.492-6.013 5.396-14.742 5.396-27.356s-1.904-21.344-5.396-27.356a20.13 20.13 0 0 0 1.256-1.573c3.636-5.075 4.302-10.824 1.488-12.84s-8.043.464-11.679 5.539c-.033.047-.062.094-.095.141C65.965 10.855 58.589 10 50 10s-15.965.855-21.783 3.911c-.033-.047-.062-.094-.095-.141-3.636-5.075-8.865-7.555-11.679-5.539s-2.148 7.765 1.488 12.84c.4.559.822 1.08 1.256 1.573-3.492 6.012-5.396 14.742-5.396 27.356s1.904 21.344 5.396 27.356a20.13 20.13 0 0 0-1.256 1.573c-3.636 5.075-4.302 10.824-1.488 12.84s8.043-.464 11.679-5.539c.033-.047.062-.094.095-.141C34.035 89.145 41.411 90 50 90s15.965-.855 21.783-3.911c.033.047.062.094.095.141 3.636 5.075 8.865 7.555 11.679 5.539s2.148-7.765-1.488-12.84a20.13 20.13 0 0 0-1.256-1.573z" stroke-width="3.5" stroke-miterlimit="10" fill="#f5e6c8" stroke="#333"/><path d="M37.51 56.46c5.203 10.062 14.206 12.079 20.41 8.871.14-.072.283-.151.43-.236-.013-.058-.024-.12-.038-.178-.031-.13-.067-.255-.101-.382a14.627 14.627 0 0 0-.341-1.104 12.491 12.491 0 0 0-.271-.694c-.044-.105-.086-.213-.132-.316a11.716 11.716 0 0 0-.469-.938c-1.345-2.401-3.473-4.248-5.727-6.204-1.715-1.488-3.488-3.027-4.952-4.871a19.983 19.983 0 0 1-.997-1.38c-.038-.058-.079-.114-.116-.172a20.429 20.429 0 0 1-.965-1.652 21.6 21.6 0 0 1-.709-1.485c-.037-.086-.073-.174-.109-.261a23.639 23.639 0 0 1-.609-1.618l-.061-.195a25.948 25.948 0 0 1-.516-1.795c-.003-.012-.007-.023-.009-.035a31.072 31.072 0 0 1-.404-1.92l-.047-.254a36.311 36.311 0 0 1-.279-1.958c-.013-.115-.027-.23-.039-.346a43.435 43.435 0 0 1-.172-2.068c-.003-.049-.009-.094-.012-.143-5.704 3.503-8.742 11.71-3.765 21.334z" fill="#66503a"/><path d="M62.478 43.548C57.7 34.31 50.022 32.039 44.158 33.83l.002.082c.025.72.067 1.415.122 2.092l.022.283c.059.661.133 1.301.222 1.922l.041.285a29.054 29.054 0 0 0 .383 2.049c.127.567.269 1.116.427 1.647l.076.248c.164.529.342 1.043.538 1.538l.086.21c.203.499.421.982.657 1.448l.083.157c.247.475.509.935.792 1.376.019.03.041.059.06.089.298.459.612.902.949 1.327 1.294 1.631 2.889 3.014 4.577 4.479 2.345 2.035 4.769 4.139 6.364 6.987.251.448.474.914.682 1.393.067.155.124.318.187.476.132.334.258.674.371 1.025.026.081.061.155.086.237 4.11-3.99 5.988-11.134 1.593-19.632z" fill="#66503a"/><metadata xmlns:d="https://loading.io/stock/">
<d:name>coffee bean</d:name>
<d:tags>coffee bean,roasted,cafe,caffeine,seed,nut</d:tags>
<d:license>by</d:license>
<d:slug>69dqxr</d:slug>
</metadata></svg>