<?xml version="1.0"?><svg version="1.1" id="圖層_1" xmlns="http://www.w3.org/2000/svg" x="0" y="0" viewBox="0 0 100 100" xml:space="preserve"><path d="M70.894 92.133H29.106C23.524 92.133 19 87.609 19 82.028V17.972c0-5.581 4.525-10.106 10.106-10.106h41.789C76.476 7.867 81 12.391 81 17.972v64.055c0 5.582-4.524 10.106-10.106 10.106z" stroke-width="3.5" stroke-linecap="round" stroke-linejoin="round" stroke-miterlimit="10" fill="#e0e0e0" stroke="#333"/><path d="M59.75 33.228h0a9.75 9.75 0 0 0-9.75 9.75 9.75 9.75 0 0 0-9.75-9.75h0a9.75 9.75 0 0 0-9.75 9.75v.129c0 10.77 14.788 23.666 19.5 23.666s19.5-12.896 19.5-23.666v-.129a9.75 9.75 0 0 0-9.75-9.75z" fill="#e15b64" stroke="#333" stroke-width="3.5" stroke-linecap="round" stroke-linejoin="round" stroke-miterlimit="10"/><metadata xmlns:d="https://loading.io/stock/">
<d:name>card</d:name>
<d:tags>card,poker,gambling,heart,casino,game,suit,french deck</d:tags>
<d:license>by</d:license>
<d:slug>876wd2</d:slug>
</metadata></svg>