<?xml version="1.0"?><svg version="1.1" id="圖層_1" xmlns="http://www.w3.org/2000/svg" x="0" y="0" viewBox="0 0 100 100" xml:space="preserve"><path d="M26 8.197S8.5 19.77 8.5 29.435v.116a8.75 8.75 0 0 0 8.75 8.75h0c2.493 0 4.142-1.118 5.704-2.772.332-.351.907-.009.749.447l-2.71 7.826h10.014l-2.71-7.826c-.158-.457.417-.799.749-.447 1.563 1.653 3.211 2.772 5.704 2.772h0a8.75 8.75 0 0 0 8.75-8.75v-.116C43.5 19.771 26 8.197 26 8.197z" fill="#666" stroke="#333" stroke-width="3.5" stroke-linecap="round" stroke-linejoin="round" stroke-miterlimit="10"/><path d="M83.188 69.228a8.274 8.274 0 0 0-4.041 1.051 8.29 8.29 0 0 0 3.166-6.52 8.313 8.313 0 1 0-16.625 0 8.29 8.29 0 0 0 3.166 6.52 8.313 8.313 0 1 0-4.041 15.575 8.282 8.282 0 0 0 5.946-2.51l-2.822 9.209h12.012l-2.84-9.356a8.28 8.28 0 0 0 6.08 2.657 8.314 8.314 0 0 0-.001-16.626z" fill="#666" stroke="#333" stroke-width="3.5" stroke-linecap="round" stroke-linejoin="round" stroke-miterlimit="10"/><path d="M34.75 58.948h0a8.75 8.75 0 0 0-8.75 8.75 8.75 8.75 0 0 0-8.75-8.75h0a8.75 8.75 0 0 0-8.75 8.75v.116c0 9.665 13.272 21.238 17.5 21.238s17.5-11.573 17.5-21.238v-.116a8.75 8.75 0 0 0-8.75-8.75z" fill="#e15b64" stroke="#333" stroke-width="3.5" stroke-linecap="round" stroke-linejoin="round" stroke-miterlimit="10"/><path fill="#e15b64" stroke="#333" stroke-width="3.5" stroke-linecap="round" stroke-linejoin="round" stroke-miterlimit="10" d="M87.3 26L74 45 60.7 26 74 7z"/><metadata xmlns:d="https://loading.io/stock/">
<d:name>card</d:name>
<d:tags>card,poker,gambling,casino,game,suit,french deck</d:tags>
<d:license>by</d:license>
<d:slug>8stvot</d:slug>
</metadata></svg>