<?xml version="1.0"?><svg version="1.1" id="圖層_1" xmlns="http://www.w3.org/2000/svg" x="0" y="0" viewBox="0 0 100 100" xml:space="preserve"><path d="M49.167 34v7.155h18.655A8.845 8.845 0 0 1 76.667 50v0a8.845 8.845 0 0 1-8.845 8.845H49.167V66h19.042c8.814 0 15.958-7.145 15.958-15.958v0c0-8.86-7.182-16.042-16.042-16.042H49.167z" fill="#e0e0e0" stroke-width="3.5" stroke="#333" stroke-miterlimit="10"/><path d="M67.5 25.75c-.362-6.841-11.794-12.333-25.833-12.333-14.039 0-25.472 5.492-25.833 12.333h0l1.863 39.333c0 11.874 8.932 21.5 19.949 21.5h8.042c11.018 0 19.949-9.626 19.949-21.5L67.5 25.75h0z" fill="#e0e0e0" stroke-width="3.5" stroke="#333" stroke-miterlimit="10"/><g><path d="M53.527 20.865a13.555 13.555 0 0 1 4.364.603c.722.216 1.44.496 2.136.885.697.384 1.386.855 2.008 1.512.61.652 1.183 1.503 1.44 2.558.132.52.191 1.079.124 1.624-.029.271-.036.559-.105.814-.074.253-.154.506-.241.758a2.748 2.748 0 0 1-.317.699l-.381.639c-.265.411-.576.724-.874 1.085-.308.327-.633.593-.957.888-.331.278-.674.481-1.014.722-2.743 1.753-5.674 2.524-8.567 3.001-2.902.462-5.793.643-8.676.667a60.653 60.653 0 0 1-8.658-.486c-2.886-.395-5.784-1.084-8.572-2.443-1.37-.729-2.76-1.606-3.904-3.019a6.571 6.571 0 0 1-1.319-2.586c-.078-.517-.148-1.058-.101-1.58.05-.527.185-1.041.384-1.497.834-1.865 2.334-2.775 3.698-3.42a11.414 11.414 0 0 1 4.342-.935c-1.132.944-2.238 1.793-3.142 2.732-.915.894-1.619 1.942-1.737 2.733-.12.764.137 1.312.815 2.051.691.688 1.685 1.356 2.789 1.884 4.505 2.13 10.008 3.172 15.35 3.064a35.211 35.211 0 0 0 7.914-1.086c2.542-.65 5.018-1.582 7.015-2.771.972-.605 1.822-1.307 2.114-1.932.036-.074.077-.147.125-.22.042-.074.028-.143.057-.214.057-.142.087-.288.081-.449-.005-.316-.11-.726-.359-1.163-.491-.89-1.424-1.799-2.441-2.643-1.04-.833-2.192-1.632-3.391-2.475z" fill="#333"/></g><path d="M41.667 24.277c-8.905 0-16.443 2.374-19.033 5.653 2.59 3.279 10.128 5.653 19.033 5.653 8.905 0 16.443-2.374 19.033-5.653-2.591-3.279-10.128-5.653-19.033-5.653z" fill="#66503a" stroke-width="3.5" stroke="#333" stroke-miterlimit="10"/><metadata xmlns:d="https://loading.io/stock/">
<d:name>coffee</d:name>
<d:tags>coffee,cafe,tea,cup,drink,cafeteria,latte,cappuccino,espresso,macchiato</d:tags>
<d:license>by</d:license>
<d:slug>af7xb</d:slug>
</metadata></svg>