<?xml version="1.0"?><svg version="1.1" id="圖層_1" xmlns="http://www.w3.org/2000/svg" x="0" y="0" viewBox="0 0 100 100" xml:space="preserve"><ellipse cx="50.031" cy="28.923" rx="27.032" ry="9.163" stroke-width="3.5" stroke-linecap="round" stroke-linejoin="round" stroke-miterlimit="10" fill="#e0e0e0" stroke="#333"/><path d="M74.699 36.39c.012-.101.024-.202.024-.303 0-4.323-11.055-7.827-24.693-7.827s-24.693 3.504-24.693 7.827c0 .067.011.133.016.2-3.596 7.005-5.732 15.117-5.732 22.846 0 19.583 13.601 29.201 30.379 29.201s30.379-9.618 30.379-29.201c0-7.691-2.116-15.761-5.68-22.743z" stroke-width="3.5" stroke-linejoin="round" stroke-miterlimit="10" fill="#f5e169" stroke="#333" stroke-linecap="round"/><path d="M77.062 28.918c4.384 8.657 6.988 18.881 6.988 28.582 0 23.472-15.245 35-34.05 35s-34.05-11.528-34.05-35c0-9.746 2.628-20.019 7.048-28.701-.026 12.303 54.036 12.422 54.064.119z" stroke-linecap="round" fill="#f5e6c8" stroke="#333" stroke-width="3.5" stroke-linejoin="round" stroke-miterlimit="10"/><path d="M23.112 53.372a65.12 65.12 0 0 1 1.636-10.961" stroke-linecap="round" fill="none" stroke="#fff" stroke-width="3.5" stroke-linejoin="round" stroke-miterlimit="10"/><path d="M23.269 62.48a51.82 51.82 0 0 1-.194-2.532" stroke-linecap="round" fill="none" stroke="#fff" stroke-width="3.5" stroke-linejoin="round" stroke-miterlimit="10"/><path d="M81.49 40.201c-4.1 26.55-22.96 47.082-46.287 49.539C39.678 91.583 44.697 92.5 50 92.5c18.805 0 34.05-11.528 34.05-35 0-5.728-.914-11.637-2.56-17.299z" opacity=".1" stroke-width="3.5" stroke-linejoin="round" stroke-miterlimit="10" stroke="#000" stroke-linecap="round"/><metadata xmlns:d="https://loading.io/stock/">
<d:name>egg</d:name>
<d:tags>egg,chicken,bird,omelet,goose,duck</d:tags>
<d:license>by</d:license>
<d:slug>ansmci</d:slug>
</metadata></svg>