<?xml version="1.0"?><svg version="1.1" id="圖層_1" xmlns="http://www.w3.org/2000/svg" x="0" y="0" viewBox="0 0 100 100" xml:space="preserve"><g><path d="M49.465 45.636c0 10.094-6.556 15.052-14.643 15.052S20.178 55.73 20.178 45.636s6.556-21.503 14.643-21.503 14.644 11.409 14.644 21.503z" stroke-width="3.5" stroke-miterlimit="10" fill="#f5e6c8" stroke="#333"/><path d="M27.553 34.395c1.573-2.513 3.565-4.522 5.802-5.586" stroke-width="3.5" stroke-miterlimit="10" fill="none" stroke="#fff" stroke-linecap="round"/><path d="M24.709 41.028c.16-.602.343-1.198.545-1.784" stroke-width="3.5" stroke-miterlimit="10" fill="none" stroke="#fff" stroke-linecap="round"/><path d="M48.364 38.197c-1.763 11.418-9.874 20.248-19.906 21.304 1.924.792 4.083 1.187 6.363 1.187 8.087 0 14.643-4.958 14.643-15.052.001-2.463-.392-5.004-1.1-7.439z" opacity=".1" stroke-width="3.5" stroke-linejoin="round" stroke-miterlimit="10" stroke="#000" stroke-linecap="round"/></g><g><path d="M79.822 45.636c0 10.094-6.556 15.052-14.643 15.052S50.535 55.73 50.535 45.636s6.556-21.503 14.643-21.503 14.644 11.409 14.644 21.503z" stroke-width="3.5" stroke-miterlimit="10" fill="#f5e6c8" stroke="#333"/><path d="M57.91 34.395c1.573-2.513 3.565-4.522 5.802-5.586" stroke-width="3.5" stroke-miterlimit="10" fill="none" stroke="#fff" stroke-linecap="round"/><path d="M55.066 41.028c.16-.602.343-1.198.545-1.784" stroke-width="3.5" stroke-miterlimit="10" fill="none" stroke="#fff" stroke-linecap="round"/><path d="M78.721 38.197c-1.763 11.418-9.874 20.248-19.906 21.304 1.924.792 4.083 1.187 6.363 1.187 8.087 0 14.643-4.958 14.643-15.052.001-2.463-.392-5.004-1.1-7.439z" opacity=".1" stroke-width="3.5" stroke-linejoin="round" stroke-miterlimit="10" stroke="#000" stroke-linecap="round"/></g><g><path d="M64.643 60.815c0 10.094-6.556 15.052-14.643 15.052s-14.643-4.958-14.643-15.052S41.913 39.312 50 39.312 64.643 50.72 64.643 60.815z" stroke-width="3.5" stroke-miterlimit="10" fill="#f5e6c8" stroke="#333"/><path d="M42.732 49.573c1.573-2.513 3.565-4.522 5.802-5.586" stroke-width="3.5" stroke-miterlimit="10" fill="none" stroke="#fff" stroke-linecap="round"/><path d="M39.887 56.206c.16-.602.343-1.198.545-1.784" stroke-width="3.5" stroke-miterlimit="10" fill="none" stroke="#fff" stroke-linecap="round"/><path d="M63.542 53.375c-1.763 11.418-9.874 20.248-19.906 21.304 1.924.792 4.083 1.187 6.363 1.187 8.087 0 14.643-4.958 14.643-15.052.001-2.463-.392-5.004-1.1-7.439z" opacity=".1" stroke-width="3.5" stroke-linejoin="round" stroke-miterlimit="10" stroke="#000" stroke-linecap="round"/></g><g><path d="M34.286 60.815c0 10.094-6.556 15.052-14.643 15.052S5 70.909 5 60.815s6.556-21.503 14.643-21.503S34.286 50.72 34.286 60.815z" stroke-width="3.5" stroke-miterlimit="10" fill="#f5e6c8" stroke="#333"/><path d="M12.375 49.573c1.573-2.513 3.565-4.522 5.802-5.586" stroke-width="3.5" stroke-miterlimit="10" fill="none" stroke="#fff" stroke-linecap="round"/><path d="M9.53 56.206c.16-.602.343-1.198.545-1.784" stroke-width="3.5" stroke-miterlimit="10" fill="none" stroke="#fff" stroke-linecap="round"/><path d="M33.186 53.375C31.422 64.793 23.312 73.623 13.28 74.68c1.924.792 4.083 1.187 6.363 1.187 8.087 0 14.643-4.958 14.643-15.052 0-2.464-.392-5.005-1.1-7.44z" opacity=".1" stroke-width="3.5" stroke-linejoin="round" stroke-miterlimit="10" stroke="#000" stroke-linecap="round"/></g><g><path d="M95 60.815c0 10.094-6.556 15.052-14.643 15.052s-14.643-4.958-14.643-15.052 6.556-21.503 14.643-21.503S95 50.72 95 60.815z" stroke-width="3.5" stroke-miterlimit="10" fill="#f5e6c8" stroke="#333"/><path d="M73.088 49.573c1.573-2.513 3.565-4.522 5.802-5.586" stroke-width="3.5" stroke-miterlimit="10" fill="none" stroke="#fff" stroke-linecap="round"/><path d="M70.244 56.206c.16-.602.343-1.198.545-1.784" stroke-width="3.5" stroke-miterlimit="10" fill="none" stroke="#fff" stroke-linecap="round"/><path d="M93.899 53.375c-1.763 11.418-9.874 20.248-19.906 21.304 1.924.792 4.083 1.187 6.363 1.187C88.444 75.867 95 70.909 95 60.815c0-2.464-.393-5.005-1.101-7.44z" opacity=".1" stroke-width="3.5" stroke-linejoin="round" stroke-miterlimit="10" stroke="#000" stroke-linecap="round"/></g><metadata xmlns:d="https://loading.io/stock/">
<d:name>egg</d:name>
<d:tags>egg,chicken,bird,omelet,goose,duck</d:tags>
<d:license>by</d:license>
<d:slug>c5bjs2</d:slug>
</metadata></svg>