<?xml version="1.0"?><svg version="1.1" id="圖層_1" xmlns="http://www.w3.org/2000/svg" x="0" y="0" viewBox="0 0 100 100" xml:space="preserve"><path d="M39.972 68.816H12.66a5.16 5.16 0 0 1-5.16-5.16V36.344a5.16 5.16 0 0 1 5.16-5.16h27.312a5.16 5.16 0 0 1 5.16 5.16v27.312a5.161 5.161 0 0 1-5.16 5.16z" fill="#fff" stroke="#333" stroke-width="3.5" stroke-linecap="round" stroke-linejoin="round" stroke-miterlimit="10"/><path d="M87.34 68.816H60.028a5.16 5.16 0 0 1-5.16-5.16V36.344a5.16 5.16 0 0 1 5.16-5.16H87.34a5.16 5.16 0 0 1 5.16 5.16v27.312a5.16 5.16 0 0 1-5.16 5.16z" fill="#fff" stroke="#333" stroke-width="3.5" stroke-linecap="round" stroke-linejoin="round" stroke-miterlimit="10"/><circle cx="26.314" cy="50" r="6.255" fill="#e15b64"/><circle cx="73.684" cy="50" r="4" fill="#666"/><circle cx="81.684" cy="42" r="4" fill="#666"/><circle cx="81.684" cy="58" r="4" fill="#666"/><circle cx="65.684" cy="58" r="4" fill="#666"/><circle cx="65.684" cy="42" r="4" fill="#666"/><metadata xmlns:d="https://loading.io/stock/">
<d:name>dice</d:name>
<d:tags>dice,gamble,random,casino,game,toss,throw,roll,die,devil's bone</d:tags>
<d:license>by</d:license>
<d:slug>dnh8xg</d:slug>
</metadata></svg>