<?xml version="1.0"?><svg version="1.1" id="圖層_1" xmlns="http://www.w3.org/2000/svg" x="0" y="0" viewBox="0 0 100 100" xml:space="preserve"><path d="M92.5 48.125v1.69a9.09 9.09 0 0 1-9.09 9.09h-9.559" fill="none" stroke-linecap="round" stroke-width="3.5" stroke="#333" stroke-miterlimit="10"/><path d="M91.366 42.447c.089.16.173.323.252.489" fill="none" stroke-linecap="round" stroke-width="3.5" stroke="#333" stroke-miterlimit="10"/><path d="M78.073 37.757h5.337c1.413 0 2.752.323 3.945.898" fill="none" stroke-linecap="round" stroke-width="3.5" stroke="#333" stroke-miterlimit="10"/><path fill="none" stroke-linecap="round" stroke-width="3.5" stroke="#333" stroke-miterlimit="10" d="M9.599 46.504l-.176-1.137"/><path d="M8.554 39.742l-.99-6.399a5.342 5.342 0 0 1 5.28-6.159h60.631c3.276 0 5.781 2.922 5.28 6.159l-.683 4.415-2.276 14.716C73.986 64.18 63.91 72.818 52.064 72.818h-17.81c-11.845 0-21.921-8.638-23.732-20.344" fill="none" stroke-linecap="round" stroke-width="3.5" stroke="#333" stroke-miterlimit="10"/><metadata xmlns:d="https://loading.io/stock/">
<d:name>coffee</d:name>
<d:tags>coffee,cafe,tea,cup,drink,cafeteria,latte,cappuccino,espresso,macchiato</d:tags>
<d:license>by</d:license>
<d:slug>fnzd15</d:slug>
</metadata></svg>