<?xml version="1.0"?><svg version="1.1" id="圖層_1" xmlns="http://www.w3.org/2000/svg" x="0" y="0" viewBox="0 0 100 100" xml:space="preserve"><g><path d="M80.945 54.326H62.396v-6.434h18.549a5.127 5.127 0 0 0 5.121-5.122v-2.723a5.128 5.128 0 0 0-5.121-5.122H62.396v-6.434h18.549c6.372 0 11.555 5.184 11.555 11.556v2.723c0 6.372-5.184 11.556-11.555 11.556z" fill="#333"/></g><path d="M76.977 22.5a6.77 6.77 0 0 0-5.146-2.367H16.21a6.768 6.768 0 0 0-5.146 2.367 6.77 6.77 0 0 0-1.552 5.447l2.714 17.55c1.814 11.735 11.75 20.252 23.624 20.252h16.34c11.875 0 21.81-8.517 23.625-20.252l2.714-17.55a6.77 6.77 0 0 0-1.552-5.447z" fill="#333"/><path d="M7.5 69.323V71.2c0 4.092 3.248 8.668 7.596 8.668H81.58c4.347 0 7.596-4.576 7.596-8.668v-1.877H7.5z" fill="#333"/><metadata xmlns:d="https://loading.io/stock/">
<d:name>coffee</d:name>
<d:tags>coffee,cafe,tea,cup,drink,cafeteria,latte,cappuccino,espresso,macchiato</d:tags>
<d:license>by</d:license>
<d:slug>g5i68o</d:slug>
</metadata></svg>