<?xml version="1.0"?><svg version="1.1" id="圖層_1" xmlns="http://www.w3.org/2000/svg" x="0" y="0" viewBox="0 0 100 100" xml:space="preserve"><circle cx="50" cy="50" r="40" fill="#e0e0e0" stroke-width="3.5" stroke="#333" stroke-miterlimit="10"/><path d="M25.178 29.02a32.535 32.535 0 0 1 14.919-9.983" stroke-width="3.5" stroke-miterlimit="10" fill="none" stroke="#fff" stroke-linecap="round"/><path d="M20.12 37.195c.321-.747.669-1.48 1.042-2.197" stroke-width="3.5" stroke-miterlimit="10" fill="none" stroke="#fff" stroke-linecap="round"/><path d="M80.312 23.917c3.451 9.779 3.737 21.283.041 32.588-5.938 18.163-20.465 30.677-36.161 33.07 1.897.276 3.835.425 5.808.425 22.091 0 40-17.909 40-40 0-9.969-3.655-19.079-9.688-26.083z" opacity=".1" stroke-width="3.5" stroke-linejoin="round" stroke-miterlimit="10" stroke="#000" stroke-linecap="round"/><path d="M80.223 53.126h-13.46v-6.251h13.46a3.126 3.126 0 0 1 3.126 3.126v0c0 1.725-1.4 3.125-3.126 3.125z" fill="#e0e0e0" stroke-width="3.5" stroke="#333" stroke-miterlimit="10"/><circle cx="50" cy="50" r="22.5" fill="#e0e0e0" stroke-width="3.5" stroke="#333" stroke-miterlimit="10"/><circle cx="50" cy="50" r="15" fill="#66503a" stroke-width="3.5" stroke="#333" stroke-miterlimit="10"/><path d="M57.574 37.068c1.535 3.269 2.106 7.18 1.379 11.2-1.64 9.073-9.257 15.314-17.192 14.26A14.92 14.92 0 0 0 50 65c8.284 0 15-6.716 15-15 0-5.518-2.988-10.327-7.426-12.932z" opacity=".1" stroke-width="3.5" stroke-linejoin="round" stroke-miterlimit="10" stroke="#000" stroke-linecap="round"/><metadata xmlns:d="https://loading.io/stock/">
<d:name>coffee</d:name>
<d:tags>coffee,cafe,tea,cup,drink,cafeteria,latte,cappuccino,espresso,macchiato</d:tags>
<d:license>by</d:license>
<d:slug>gmwrat</d:slug>
</metadata></svg>