<?xml version="1.0"?><svg version="1.1" id="圖層_1" xmlns="http://www.w3.org/2000/svg" x="0" y="0" viewBox="0 0 100 100" xml:space="preserve"><g><path d="M80.799 61.526H61.763v-6.287h19.036a5.42 5.42 0 0 0 5.414-5.414V47.03a5.42 5.42 0 0 0-5.414-5.414H61.763V35.33h19.036c6.452 0 11.701 5.249 11.701 11.701v2.795c0 6.451-5.249 11.7-11.701 11.7z" fill="#333"/></g><path d="M76.657 29.082a6.857 6.857 0 0 0-5.211-2.397H14.364a6.854 6.854 0 0 0-5.211 2.397 6.852 6.852 0 0 0-1.572 5.516l2.785 18.011C12.221 64.607 22.38 73.315 34.52 73.315h16.768c12.14 0 22.299-8.708 24.154-20.706l2.785-18.011a6.847 6.847 0 0 0-1.57-5.516z" fill="#333"/><metadata xmlns:d="https://loading.io/stock/">
<d:name>coffee</d:name>
<d:tags>coffee,cafe,tea,cup,drink,cafeteria,latte,cappuccino,espresso,macchiato</d:tags>
<d:license>by</d:license>
<d:slug>h2ur2t</d:slug>
</metadata></svg>