<?xml version="1.0"?><svg version="1.1" id="圖層_1" xmlns="http://www.w3.org/2000/svg" x="0" y="0" viewBox="0 0 100 100" xml:space="preserve"><path stroke-linecap="round" stroke-linejoin="round" stroke-miterlimit="10" stroke-width="2.602" opacity=".1" stroke="#000" d="M13.284 25.119v20.722l3.668 1.764v29l30.833 14.833V41.716z"/><path opacity=".2" stroke="#000" stroke-width="2.602" stroke-linecap="round" stroke-linejoin="round" stroke-miterlimit="10" d="M86.716 25.383L47.785 41.716v49.722l34.667-14.833V47.894l4.264-1.789z"/><path fill="#e15b64" stroke="#333" stroke-width="3.5" stroke-linecap="round" stroke-linejoin="round" stroke-miterlimit="10" d="M47.722 92.5L16.106 77.29V39.123l31.616 15.21z"/><path opacity=".1" stroke-width="3.5" stroke-linejoin="round" stroke-miterlimit="10" stroke="#000" stroke-linecap="round" d="M16.106 53.193l31.616 15.21v-14.07l-31.616-15.21z"/><path fill="#e15b64" stroke="#333" stroke-width="3.5" stroke-linecap="round" stroke-linejoin="round" stroke-miterlimit="10" d="M47.722 92.5l35.547-15.21V39.123l-35.547 15.21z"/><path opacity=".1" stroke-width="3.5" stroke-linejoin="round" stroke-miterlimit="10" stroke="#000" stroke-linecap="round" d="M47.722 68.403l35.547-15.21v-14.07l-35.547 15.21z"/><path fill="#e15b64" stroke="#333" stroke-width="3.5" stroke-linecap="round" stroke-linejoin="round" stroke-miterlimit="10" d="M47.722 62.764L12.346 45.745V24.497l35.376 17.019z"/><path fill="#e15b64" stroke="#333" stroke-width="3.5" stroke-linecap="round" stroke-linejoin="round" stroke-miterlimit="10" d="M47.722 62.764l39.92-16.748V24.768l-39.92 16.748z"/><path fill="#e15b64" stroke="#333" stroke-width="3.5" stroke-linecap="round" stroke-linejoin="round" stroke-miterlimit="10" d="M87.654 24.748L47.735 41.497 12.358 24.248 52.278 7.5z"/><path fill="#fff" stroke="#333" stroke-width="3.5" stroke-linecap="round" stroke-linejoin="round" stroke-miterlimit="10" d="M65.339 13.996l-39.92 16.645v51.13L35.875 86.8V35.714l38.721-17.307z"/><path fill="#fff" stroke="#333" stroke-width="3.5" stroke-linecap="round" stroke-linejoin="round" stroke-miterlimit="10" d="M37.472 13.725l-11.969 5.008 36.039 16.985v50.869l11.307-4.838V30.974z"/><metadata xmlns:d="https://loading.io/stock/">
<d:name>gift</d:name>
<d:tags>gift,present,giveaway,free,birthday,box,ribbon,souvenir,handsel,award,bonus,benefit</d:tags>
<d:license>by</d:license>
<d:slug>oha7wg</d:slug>
</metadata></svg>