<?xml version="1.0"?><svg version="1.1" id="圖層_1" xmlns="http://www.w3.org/2000/svg" x="0" y="0" viewBox="0 0 100 100" xml:space="preserve"><path fill="none" stroke-linecap="round" stroke-width="3.5" stroke="#333" stroke-miterlimit="10" d="M76.367 69.001V58.448H58.5"/><path fill="none" stroke-linecap="round" stroke-width="3.5" stroke="#333" stroke-miterlimit="10" d="M76.367 76.598v-2.4"/><path d="M41.5 58.448H23.633v25.233a5.267 5.267 0 0 0 5.267 5.267h42.2a5.267 5.267 0 0 0 5.267-5.267v-1.445" fill="none" stroke-linecap="round" stroke-width="3.5" stroke="#333" stroke-miterlimit="10"/><path d="M38.985 15.174c-.539-.312-1.119-.651-1.73-1" fill="none" stroke-linecap="round" stroke-width="3.5" stroke="#333" stroke-miterlimit="10"/><path d="M31.779 11.501c-2.404-.886-4.885-1.31-7.099-.567-.087.029-.174.06-.26.093-1.641.626-3.224 5.227-4.183 6.886-1.024 1.772 3.906 6.538 11.012 10.646 6.77 3.913 14.065 4.186 15.359 3.124l3.022-5.228c.436-.754-1.523-4.04-5.228-7.353" fill="none" stroke-linecap="round" stroke-width="3.5" stroke="#333" stroke-miterlimit="10"/><path d="M75.32 10.934c.087.029.174.06.26.093 1.641.626 3.224 5.227 4.183 6.886 1.024 1.772-3.906 6.538-11.012 10.646-6.77 3.913-14.065 4.186-15.359 3.124l-3.022-5.228c-.615-1.064 3.539-7.173 10.645-11.28 3.814-2.206 9.65-5.804 14.305-4.241z" fill="none" stroke="#333" stroke-width="3.5" stroke-miterlimit="10"/><path d="M41.5 58.448H19.575a3.425 3.425 0 0 1-3.425-3.425V35.874a3.425 3.425 0 0 1 3.425-3.425h60.851a3.425 3.425 0 0 1 3.425 3.425v19.149a3.425 3.425 0 0 1-3.425 3.425H58.5" fill="none" stroke="#333" stroke-width="3.5" stroke-miterlimit="10"/><path fill="none" stroke-linecap="round" stroke-width="3.5" stroke="#333" stroke-miterlimit="10" d="M41.5 46.75v-1.302"/><path fill="none" stroke-linecap="round" stroke-width="3.5" stroke="#333" stroke-miterlimit="10" d="M41.5 39.46v-7.012h17v56.5h-17V53.463"/><metadata xmlns:d="https://loading.io/stock/">
<d:name>gift</d:name>
<d:tags>gift,present,giveaway,free,birthday,box,ribbon,souvenir,handsel,award,bonus,benefit</d:tags>
<d:license>by</d:license>
<d:slug>oyrlmg</d:slug>
</metadata></svg>