<?xml version="1.0"?><svg version="1.1" id="圖層_1" xmlns="http://www.w3.org/2000/svg" x="0" y="0" viewBox="0 0 100 100" xml:space="preserve"><path d="M61.851 39h18.167a8.167 8.167 0 0 1 8.167 8.167v2.667a8.167 8.167 0 0 1-8.167 8.167H61.851" fill="none" stroke="#333" stroke-width="3.5" stroke-miterlimit="10"/><path d="M51.856 70.5H35.853c-10.643 0-19.695-7.76-21.322-18.278l-2.658-17.188a4.8 4.8 0 0 1 4.744-5.534h54.474a4.8 4.8 0 0 1 4.744 5.534l-2.658 17.188C71.551 62.74 62.498 70.5 51.856 70.5z" fill="#e0e0e0" stroke-width="3.5" stroke="#333" stroke-miterlimit="10"/><path stroke-width="3.5" stroke-miterlimit="10" fill="none" stroke="#fff" stroke-linecap="round" d="M21.493 47.457L19.925 37.32"/><path d="M22.7 54.324c-.127-.463-.24-.932-.337-1.408" stroke-width="3.5" stroke-miterlimit="10" fill="none" stroke="#fff" stroke-linecap="round"/><path d="M71.091 29.167h-2.503c-.009.075-.01.149-.022.225l-3.334 21.563c-1.28 8.277-6.227 15.192-13.032 19.197 10.492-.167 19.369-7.859 20.977-18.262l2.658-17.188a4.8 4.8 0 0 0-4.744-5.535z" opacity=".2" stroke="#000" stroke-linecap="round" stroke-linejoin="round" stroke-width="3.5" stroke-miterlimit="10"/><metadata xmlns:d="https://loading.io/stock/">
<d:name>coffee</d:name>
<d:tags>coffee,cafe,tea,cup,drink,cafeteria,latte,cappuccino,espresso,macchiato</d:tags>
<d:license>by</d:license>
<d:slug>vas26</d:slug>
</metadata></svg>